<?xml version="1.0" standalone="no"?>
<!DOCTYPE svg PUBLIC "-//W3C//DTD SVG 20010904//EN"
 "http://www.w3.org/TR/2001/REC-SVG-20010904/DTD/svg10.dtd">
<svg version="1.0" xmlns="http://www.w3.org/2000/svg"
 width="2472.000000pt" height="2472.000000pt" viewBox="0 0 2472.000000 2472.000000"
 preserveAspectRatio="xMidYMid meet">
<metadata>
Created by potrace 1.11, written by Peter Selinger 2001-2013
</metadata>
<g transform="translate(0.000000,2472.000000) scale(0.100000,-0.100000)"
fill="#000000" stroke="none">
<path d="M10040 24339 c-63 -16 -142 -33 -175 -38 -33 -6 -69 -12 -80 -15 -56
-13 -354 -88 -380 -96 -16 -5 -133 -39 -260 -75 -126 -37 -255 -75 -285 -87
-30 -11 -62 -21 -71 -23 -22 -4 -317 -106 -419 -145 -195 -73 -378 -144 -415
-160 -22 -10 -69 -30 -105 -45 -36 -14 -89 -37 -118 -51 -29 -13 -54 -24 -57
-24 -2 0 -43 -18 -92 -41 -48 -22 -124 -57 -168 -77 -370 -170 -956 -488
-1310 -713 -78 -50 -487 -322 -545 -363 -36 -26 -76 -54 -90 -64 -194 -133
-706 -539 -925 -733 -278 -246 -677 -631 -875 -845 -184 -198 -455 -508 -530
-604 -18 -25 -48 -61 -65 -81 -16 -19 -41 -48 -54 -64 -95 -113 -440 -586
-602 -825 -142 -210 -462 -735 -527 -865 -8 -16 -25 -43 -36 -60 -12 -16 -20
-31 -18 -33 3 -2 -7 -20 -57 -112 -37 -67 -247 -489 -289 -580 -16 -36 -41
-90 -55 -120 -127 -274 -303 -722 -431 -1100 -65 -193 -170 -526 -181 -579 -2
-9 -20 -74 -40 -146 -20 -71 -52 -195 -71 -275 -41 -166 -37 -152 -59 -250 -9
-41 -22 -104 -30 -140 -8 -36 -17 -76 -19 -90 -3 -14 -16 -88 -31 -165 -29
-156 -43 -235 -50 -281 -3 -17 -11 -74 -20 -125 -14 -90 -21 -140 -30 -204
-20 -152 -25 -196 -29 -235 -12 -115 -17 -157 -21 -185 -2 -16 -7 -66 -10
-110 -3 -44 -8 -96 -10 -115 -2 -19 -7 -78 -11 -130 -3 -52 -7 -115 -9 -140
-19 -257 -25 -948 -11 -1275 9 -218 19 -373 31 -495 2 -19 6 -71 10 -115 3
-44 8 -93 10 -110 2 -16 7 -57 10 -90 5 -56 30 -263 40 -330 21 -151 37 -259
45 -305 10 -57 16 -96 25 -152 13 -79 108 -550 125 -618 10 -41 21 -86 23
-100 10 -55 114 -449 146 -555 5 -16 24 -77 41 -135 59 -196 194 -606 220
-665 4 -11 41 -105 81 -210 74 -196 195 -485 255 -612 19 -40 34 -75 34 -78 0
-14 284 -582 360 -720 114 -207 118 -215 146 -260 13 -22 27 -47 31 -55 11
-24 201 -337 259 -427 30 -46 80 -122 111 -170 31 -49 60 -89 65 -91 4 -2 8
-8 8 -14 0 -25 368 -528 584 -798 95 -119 294 -359 306 -370 3 -3 41 -45 84
-95 157 -179 285 -314 516 -546 505 -506 923 -861 1552 -1320 117 -86 615
-417 643 -428 6 -2 36 -21 67 -43 31 -21 59 -38 62 -38 2 0 58 -32 123 -72 65
-39 141 -84 168 -99 28 -14 86 -46 130 -71 44 -25 112 -62 150 -83 81 -44 516
-262 590 -295 28 -12 84 -38 125 -57 323 -150 841 -352 1210 -473 113 -36 477
-148 510 -156 8 -1 83 -21 165 -43 204 -55 533 -132 748 -175 l178 -36 2233 0
2233 0 219 46 c121 25 239 49 264 55 88 18 376 91 499 125 69 19 134 37 144
39 10 2 32 9 50 14 18 6 86 27 152 47 175 52 533 171 640 214 11 4 94 36 185
70 171 65 438 174 525 215 28 12 73 33 100 45 327 142 868 424 1228 639 70 42
136 81 145 86 157 90 817 536 888 600 7 5 24 19 40 30 75 54 435 335 454 355
3 3 48 41 100 85 409 342 844 761 1195 1150 44 48 85 93 90 99 6 6 35 40 65
76 30 36 60 70 66 75 6 6 33 37 60 70 27 33 51 62 54 65 8 7 211 259 235 291
11 14 74 98 140 185 125 165 224 301 285 390 104 154 270 405 270 409 0 3 15
26 33 52 17 27 37 57 44 68 6 11 59 99 116 195 58 96 112 189 121 205 9 17 21
37 26 45 73 113 389 742 505 1005 15 33 35 78 45 100 29 64 134 320 180 440
23 61 46 119 51 130 85 194 320 940 405 1285 2 8 8 35 15 60 6 25 12 52 14 60
2 8 15 62 29 120 14 58 27 116 30 130 2 14 18 88 34 165 17 77 33 156 36 175
3 19 12 71 21 115 21 114 22 115 29 168 4 27 9 57 11 67 2 9 6 35 10 56 3 22
8 53 11 69 3 17 7 44 9 60 2 17 7 53 12 80 10 62 11 3331 0 3400 -4 28 -10 68
-13 90 -3 22 -7 51 -9 65 -4 26 -43 257 -50 300 -3 14 -10 52 -15 85 -6 33
-19 101 -30 150 -10 50 -21 104 -24 120 -18 99 -53 251 -106 460 -28 110 -52
209 -55 220 -32 142 -302 991 -325 1020 -4 6 -10 24 -14 40 -4 17 -13 44 -21
60 -7 17 -52 129 -100 249 -300 754 -720 1552 -1162 2209 -51 77 -93 143 -93
147 0 5 -3 10 -8 12 -4 2 -34 41 -66 88 -238 342 -547 734 -870 1100 -51 59
-219 243 -251 276 -233 242 -494 498 -660 648 -60 55 -112 102 -115 105 -25
29 -437 373 -560 468 -8 6 -40 32 -70 56 -349 279 -903 652 -1390 934 -267
155 -694 378 -925 483 -38 18 -99 46 -135 62 -36 17 -78 36 -95 43 -16 7 -52
23 -79 35 -67 30 -337 141 -411 169 -33 13 -79 32 -102 42 -24 11 -46 19 -50
19 -7 0 -167 56 -198 70 -75 33 -503 171 -735 236 -176 50 -400 110 -443 119
-10 2 -26 6 -35 9 -22 7 -54 14 -172 36 -52 11 -131 29 -175 42 l-80 23 -2455
2 -2455 2 -115 -30z"/>
</g>
</svg>
